# xmcd
#
# Track frame offsets:
#	150
#	14192
#	35325
#	52037
#	73982
#	88917
#	107832
#	126220
#	145222
#	162975
#	180392
#
# Disc length: 2659 seconds
#
# Revision: 1
# Processed by: cddbd v1.4PL0 Copyright (c) Steve Scherf et al.
# Submitted via: audiograbber 1.81.02
#
DISCID=a30a610b
DTITLE=Kevin Sharp - love is
DYEAR=1900
DGENRE=
TTITLE0=Kiss the girl
TTITLE1=Scared like that again
TTITLE2=So tears won't fall
TTITLE3=If she only knew
TTITLE4=She just has to be mine
TTITLE5=Still love
TTITLE6=This is our night
TTITLE7=Love is all that really matters
TTITLE8=The last time
TTITLE9=My love is
TTITLE10=If I open my eyes
EXTD=
EXTT0=
EXTT1=
EXTT2=
EXTT3=
EXTT4=
EXTT5=
EXTT6=
EXTT7=
EXTT8=
EXTT9=
EXTT10=
PLAYORDER=
